<svg width="16" height="16" viewBox="0 0 16 16" fill="none" xmlns="http://www.w3.org/2000/svg">
<path d="M11.9896 9.67114C12.0046 9.92065 12.2651 10.0889 12.4769 9.9561C13.7923 9.13082 14.6668 7.66762 14.6668 6.00016C14.6668 3.42283 12.5775 1.3335 10.0002 1.3335C8.3327 1.3335 6.8695 2.20803 6.04421 3.52345C5.91137 3.73519 6.07967 3.9957 6.32918 4.0107C9.31307 4.19009 11.8102 6.68983 11.9896 9.67114Z" fill="#3772FF"/>
<path d="M10.6668 10.0002C10.6668 12.5775 8.57749 14.6668 6.00016 14.6668C3.42283 14.6668 1.3335 12.5775 1.3335 10.0002C1.3335 7.42283 3.42283 5.3335 6.00016 5.3335C8.57749 5.3335 10.6668 7.42283 10.6668 10.0002Z" fill="#3772FF"/>
</svg>
