<svg width="15" height="4" viewBox="0 0 15 4" fill="none" xmlns="http://www.w3.org/2000/svg">
<path d="M1.66667 0.333496C0.75 0.333496 0 1.0835 0 2.00016C0 2.91683 0.75 3.66683 1.66667 3.66683C2.58333 3.66683 3.33333 2.91683 3.33333 2.00016C3.33333 1.0835 2.58333 0.333496 1.66667 0.333496ZM13.3333 0.333496C12.4167 0.333496 11.6667 1.0835 11.6667 2.00016C11.6667 2.91683 12.4167 3.66683 13.3333 3.66683C14.25 3.66683 15 2.91683 15 2.00016C15 1.0835 14.25 0.333496 13.3333 0.333496ZM7.5 0.333496C6.58333 0.333496 5.83333 1.0835 5.83333 2.00016C5.83333 2.91683 6.58333 3.66683 7.5 3.66683C8.41667 3.66683 9.16667 2.91683 9.16667 2.00016C9.16667 1.0835 8.41667 0.333496 7.5 0.333496Z" fill="#777E91"/>
</svg>
